<svg width="13" height="13" viewBox="0 0 13 13" fill="none" xmlns="http://www.w3.org/2000/svg">
<path d="M13 4.85943V4.70752C13 3.93129 12.3682 3.29937 11.5922 3.29937H9.7014V1.40816C9.7014 0.631923 9.06963 0 8.29357 0H4.70643C3.93037 0 3.2986 0.631923 3.2986 1.40816V3.29937H1.40783C0.631776 3.29937 0 3.93129 0 4.70752V8.29399C0 9.07023 0.631776 9.70215 1.40783 9.70215H3.2986V11.5934C3.2986 12.3696 3.93037 13 4.70643 13H8.29357C9.06963 13 9.7014 12.3681 9.7014 11.5934V9.70215H11.5922C12.3682 9.70215 13 9.07023 13 8.29399V4.85943Z" fill="#0D3157"/>
</svg>
