<svg width="168" height="138" viewBox="0 0 168 138" fill="none" xmlns="http://www.w3.org/2000/svg">
<rect width="168" height="33" rx="8" fill="#ECECEC"/>
<g clip-path="url(#clip0_0_3)">
<path d="M122.398 26.8831C124.501 27.7894 126.802 28.4198 128.668 29.6807C132.993 32.636 135.136 36.8127 134.144 42.0927C133.033 47.9638 128.945 51.1555 123.39 52.377C120.453 53.0074 117.358 52.8498 114.104 53.0862V33.5029H110.652C110.612 33.8575 110.493 34.2121 110.493 34.5667C110.493 43.2748 110.414 51.9829 110.533 60.691C110.533 61.9519 111.366 63.2916 112.12 64.3949C115.176 68.8869 118.35 73.2606 121.445 77.7132C123.469 80.629 124.144 83.9783 124.144 87.4064C124.183 99.8578 124.144 112.27 124.144 124.721C124.144 129.45 121.842 131.735 117.08 131.735C112.715 131.735 108.311 131.617 103.945 131.774C100.93 131.893 98.4693 130.986 96.1281 129.292C93.0328 127.046 89.9773 124.761 86.8027 122.633C84.5408 121.096 83.9059 118.811 83.6281 116.446C83.39 114.476 82.5964 113.925 80.6123 113.925C72.7949 114.043 64.9775 113.964 57.1204 113.964C56.287 113.964 55.414 113.964 54.3426 113.964V33.5029H50.0569V52.4558C43.6284 54.3077 35.9697 52.0617 32.1999 47.3728C26.7237 40.556 30.2158 30.587 39.0253 27.8682C40.057 27.553 41.049 27.1983 42.0808 26.8831C68.8663 26.8831 95.6122 26.8831 122.398 26.8831ZM111.168 69.0839L110.572 69.2415C110.533 69.9902 110.453 70.6994 110.453 71.4481C110.453 76.0189 110.453 80.629 110.453 85.1998C110.453 87.6822 109.898 89.9282 108.072 91.7801C106.366 93.5138 104.779 95.287 103.072 97.0207C99.8185 100.37 95.1757 99.7396 92.9138 95.6416C91.5249 93.1198 90.1757 90.6374 88.8662 88.0762C88.0329 86.4607 87.0805 85.3574 85.017 86.1455C82.3186 87.1699 81.2075 88.5491 81.644 90.6768C83.4694 99.4637 85.3345 108.29 87.2789 117.038C87.517 118.141 88.3106 119.323 89.2233 120.032C92.517 122.554 95.89 124.918 99.3423 127.204C100.295 127.834 101.604 128.228 102.795 128.267C107.398 128.386 112.041 128.346 116.644 128.307C120.056 128.307 120.612 127.716 120.612 124.367C120.612 112.467 120.295 100.567 120.731 88.7067C121.049 80.1562 114.977 75.3096 111.168 69.0839ZM67.3584 59.4301C67.3584 67.9018 73.9457 74.5609 82.398 74.5609C90.6916 74.5609 97.5169 67.9018 97.5566 59.7059C97.5963 51.4313 90.7709 44.5751 82.4377 44.5357C74.1441 44.5357 67.3981 51.1949 67.3584 59.3907V59.4301ZM82.1996 110.339C82.0408 109.354 81.8027 108.526 81.7631 107.699C81.6837 105.492 80.6123 104.744 78.4694 105.02C77.2393 105.177 75.9695 105.02 74.7393 105.059C73.5092 105.138 72.8742 104.783 72.398 103.483C71.1679 99.976 68.8663 97.2177 65.2949 95.9174C63.5886 95.287 63.3505 94.3807 63.3505 92.844C63.3505 73.9699 63.3505 55.0958 63.3505 36.2611C63.3505 35.3548 63.3505 34.4485 63.3505 33.5423H58.0331V110.378H82.1996V110.339ZM101.326 92.844C101.326 92.844 101.684 93.041 101.882 93.1198C104.263 90.5192 107.16 88.549 107.08 84.0177C106.803 68.0988 106.961 52.1799 106.961 36.2611V33.5029H101.326V92.844Z" fill="#0E3157"/>
<path d="M111.168 69.0839C114.937 75.3096 121.009 80.1562 120.731 88.7067C120.295 100.567 120.612 112.467 120.612 124.367C120.612 127.716 120.056 128.307 116.644 128.307C112.041 128.307 107.398 128.386 102.795 128.267C101.644 128.267 100.334 127.834 99.3423 127.204C95.89 124.918 92.517 122.554 89.2233 120.032C88.3106 119.362 87.517 118.141 87.2789 117.038C85.3345 108.251 83.4694 99.4637 81.644 90.6768C81.2075 88.549 82.3186 87.1699 85.017 86.1455C87.0805 85.3574 88.0329 86.4607 88.8662 88.0762C90.1757 90.6374 91.5249 93.1592 92.9138 95.6416C95.1757 99.7395 99.7788 100.37 103.072 97.0207C104.779 95.287 106.366 93.5138 108.072 91.7801C109.898 89.9282 110.453 87.6822 110.453 85.1998C110.453 80.629 110.453 76.0188 110.453 71.4481C110.453 70.6994 110.533 69.9902 110.572 69.2415L111.168 69.0839Z" fill="white"/>
<path d="M67.3584 59.3907C67.3584 51.1555 74.1441 44.4963 82.4377 44.5357C90.7709 44.5357 97.636 51.3919 97.5566 59.7059C97.5169 67.9018 90.6916 74.5609 82.398 74.5609C73.9457 74.5609 67.3187 67.9018 67.3584 59.4301V59.3907ZM76.9218 52.4952V57.8934C75.3742 58.0116 74.1441 58.1298 72.8346 58.248V61.1639C74.1837 61.2427 75.4933 61.3215 77.0409 61.4397V66.7985H79.9377V61.0851C81.0091 61.4397 82.1599 61.5185 82.3186 61.9519C82.8742 63.4886 83.0726 65.1436 83.39 66.7591H85.6122C85.771 65.8528 85.9297 65.0254 86.1281 64.0403C87.7551 64.7101 89.2233 65.3406 90.7709 65.971C91.2471 64.1585 91.0487 62.9764 89.2233 62.2671C87.6757 61.6367 86.2868 60.6516 84.8186 59.8242C86.4456 57.1447 91.882 58.2874 90.8106 53.2044C89.144 53.9137 87.636 54.5835 86.0091 55.2928C85.89 54.2289 85.771 53.4802 85.6519 52.6922H83.2313C82.4773 54.7017 84.3027 57.9328 80.6123 57.9328C78.6282 56.4749 82.1202 52.3376 76.9218 52.4952Z" fill="white"/>
<path d="M82.1599 110.3H57.9934V33.5028H63.3108C63.3108 34.4091 63.3108 35.3154 63.3108 36.2217C63.3108 55.0958 63.3108 73.9699 63.3108 92.8046C63.3108 94.3413 63.5489 95.2476 65.2552 95.878C68.8266 97.1783 71.1282 99.9366 72.3584 103.443C72.8346 104.744 73.4695 105.098 74.6996 105.02C75.9298 104.941 77.1996 105.138 78.4298 104.98C80.5726 104.704 81.6837 105.492 81.7234 107.66C81.7234 108.487 82.0012 109.315 82.1599 110.3Z" fill="white"/>
<path d="M101.287 92.844V33.5028H106.922V36.2611C106.922 52.1799 106.763 68.0988 107.041 84.0177C107.12 88.5491 104.263 90.4798 101.842 93.1198C101.644 93.041 101.485 92.9228 101.287 92.844Z" fill="white"/>
<path d="M76.8821 52.5346C82.0805 52.377 78.5885 56.5143 80.5726 57.9722C84.3027 57.9722 82.4377 54.7411 83.1916 52.7316H85.6122C85.7313 53.5197 85.8107 54.2683 85.9694 55.3322C87.5964 54.6229 89.144 53.9531 90.7709 53.2438C91.8424 58.3268 86.4059 57.1841 84.7789 59.8636C86.2472 60.691 87.636 61.6761 89.1837 62.3066C91.009 63.0158 91.2074 64.1979 90.7313 66.0105C89.1837 65.38 87.7154 64.7889 86.0884 64.0797C85.89 65.0648 85.7313 65.8528 85.5726 66.7985H83.3504C83.0329 65.183 82.8345 63.5281 82.2789 61.9913C82.1202 61.5579 80.9694 61.4791 79.898 61.1245V66.8379H77.0012V61.4791C75.4536 61.4003 74.1837 61.3215 72.7949 61.2033V58.2874C74.1044 58.1692 75.3345 58.0904 76.8821 57.9328V52.5346Z" fill="#0E3157"/>
<path d="M90.6519 138V127.282H124.501V138H90.6519Z" fill="#0E3157"/>
<path d="M38.0729 113.491L51.0887 104.074H44.1443L44.2236 59.6665H31.6443L31.6047 104.074H25.0571L38.0729 113.491Z" fill="#C4337A"/>
</g>
<defs>
<clipPath id="clip0_0_3">
<rect width="109.325" height="111.117" fill="white" transform="translate(25.0571 26.8831)"/>
</clipPath>
</defs>
</svg>
