<svg width="126" height="29" viewBox="0 0 126 29" fill="none" xmlns="http://www.w3.org/2000/svg">
<g clip-path="url(#clip0_1_66)">
<path d="M82.0922 16.0945C82.0922 15.9512 82.1685 15.8735 82.3094 15.8735H84.4579C86.0839 15.8735 87.1346 16.7693 87.1346 18.3579C87.1346 19.9464 86.0839 20.7108 84.4579 20.7108H83.865C83.7593 20.7108 83.7006 20.7646 83.7006 20.8721V23.3087C83.7006 23.452 83.6243 23.5296 83.4834 23.5296H82.3036C82.1627 23.5296 82.0864 23.452 82.0864 23.3087V16.0885L82.0922 16.0945ZM83.865 19.182H84.4872C85.1623 19.182 85.5497 18.9193 85.5497 18.2504C85.5497 17.5815 85.174 17.3426 84.4872 17.3426H83.865C83.7593 17.3426 83.7006 17.3964 83.7006 17.5099V19.0208C83.7006 19.1283 83.7534 19.188 83.865 19.188V19.182Z" fill="#0D3157"/>
<path d="M88.9132 23.3145V16.1004C88.9132 15.957 88.9895 15.8794 89.1304 15.8794H90.3103C90.4512 15.8794 90.5275 15.957 90.5275 16.1004V21.7976C90.5275 21.9051 90.5803 21.9589 90.6918 21.9589H92.94C93.0809 21.9589 93.1572 22.0365 93.1572 22.1798V23.3145C93.1572 23.4579 93.0809 23.5355 92.94 23.5355H89.1363C88.9954 23.5355 88.9191 23.4579 88.9191 23.3145H88.9132Z" fill="#0D3157"/>
<path d="M94.5719 20.9198V16.0944C94.5719 15.957 94.6482 15.8794 94.7832 15.8794H95.9455C96.0805 15.8794 96.1568 15.957 96.1568 16.0944V20.8541C96.1568 21.6245 96.4973 21.9828 97.0843 21.9828C97.6713 21.9828 98.0059 21.6304 98.0059 20.8541V16.0944C98.0059 15.957 98.0822 15.8794 98.2172 15.8794H99.3794C99.5145 15.8794 99.5908 15.957 99.5908 16.0944V20.9198C99.5908 22.6516 98.6222 23.5295 97.0901 23.5295C95.5581 23.5295 94.5778 22.6457 94.5778 20.9198H94.5719Z" fill="#0D3157"/>
<path d="M101.651 21.4095L102.772 21.2064C102.896 21.1825 102.972 21.2482 103.001 21.3856C103.107 21.8693 103.389 22.1142 103.882 22.1142C104.41 22.1142 104.721 21.8215 104.721 21.3438C104.721 20.6988 104.158 20.5316 103.453 20.3166C102.602 20.0538 101.534 19.6716 101.534 18.1069C101.534 16.7513 102.332 15.8794 103.87 15.8794C105.109 15.8794 106.042 16.4527 106.283 17.7606C106.306 17.886 106.242 17.9815 106.107 18.0054L104.985 18.2085C104.862 18.2324 104.786 18.1667 104.756 18.0293C104.651 17.5456 104.369 17.3007 103.876 17.3007C103.324 17.3007 103.025 17.5874 103.025 18.0413C103.025 18.6623 103.594 18.8534 104.169 19.0446C105.179 19.373 106.277 19.7851 106.277 21.296C106.277 22.5979 105.467 23.5355 103.888 23.5355C102.649 23.5355 101.716 22.9622 101.475 21.6543C101.452 21.5289 101.516 21.4333 101.651 21.4095Z" fill="#0D3157"/>
<path d="M13.2369 14.8884H15.3384V14.3927C15.3384 12.8579 14.5929 11.9979 13.2369 11.9979C12.2096 11.9979 11.1648 12.2308 10.4956 12.3861C9.95554 12.5414 9.55051 12.2846 9.42137 11.7351L9.2394 11.0842C9.08678 10.5109 9.36854 10.069 9.87923 9.91368C10.3899 9.75841 11.7987 9.36426 13.2369 9.36426C16.3128 9.36426 18.3614 11.3171 18.3614 14.3927V19.0568C18.3614 21.6367 16.031 23.5657 13.2897 23.5657C10.5484 23.5657 8.21802 21.6128 8.21802 19.0568C8.21802 16.2918 10.2667 14.8884 13.2369 14.8884ZM13.2897 20.932C14.5694 20.932 15.3384 19.9944 15.3384 19.0568V17.1278H13.2134C11.7811 17.1278 11.2646 18.0117 11.2646 19.0031C11.2646 19.9944 11.9279 20.932 13.2897 20.932Z" fill="#0D3157"/>
<path d="M6.9325 22.4787L6.69769 21.3142C6.62138 20.7349 6.20461 20.4423 5.6587 20.4423H3.04067V4.86136C3.04067 4.25222 2.6239 3.91182 2.00168 3.98945L0.857023 4.22833C0.287631 4.30597 0 4.72998 0 5.28537V22.6101C0 23.1655 0.363941 23.5358 0.909853 23.5358H6.07547C6.67421 23.5358 7.00881 23.1118 6.9325 22.4787Z" fill="#0D3157"/>
<path d="M28.1996 22.5084L27.9648 21.3439C27.8885 20.7646 27.4717 20.472 26.9258 20.472H24.3078V4.89701C24.3078 4.28786 23.891 3.94746 23.2688 4.0251L22.1241 4.26398C21.5547 4.34161 21.2671 4.76562 21.2671 5.32102V22.6458C21.2671 23.2012 21.631 23.5714 22.1769 23.5714H27.3426C27.9413 23.5714 28.2759 23.1474 28.1996 22.5144V22.5084Z" fill="#0D3157"/>
<path d="M34.3514 14.9001H36.447V14.4044C36.447 12.8696 35.7074 12.0096 34.3514 12.0096C33.33 12.0096 32.2793 12.2425 31.6159 12.3978C31.0759 12.5531 30.6709 12.2963 30.5417 11.7469L30.3598 11.0959C30.2071 10.5226 30.4889 10.0807 30.9996 9.9254C31.5103 9.77013 32.9191 9.37598 34.3514 9.37598C37.4214 9.37598 39.47 11.3288 39.47 14.3984V19.0566C39.47 21.6365 37.1396 23.5595 34.4042 23.5595C31.6688 23.5595 29.3384 21.6066 29.3384 19.0566C29.3384 16.2975 31.387 14.8881 34.3572 14.8881L34.3514 14.9001ZM34.4042 20.9437C35.6839 20.9437 36.4528 20.0061 36.4528 19.0685V17.1396H34.3279C32.8956 17.1396 32.3849 18.0234 32.3849 19.0148C32.3849 20.0061 33.0482 20.9437 34.4042 20.9437Z" fill="#0D3157"/>
<path d="M60.4025 14.9001H62.4922V14.4044C62.4922 12.8756 61.7526 12.0216 60.4025 12.0216C59.3811 12.0216 58.3362 12.2545 57.6729 12.4098C57.1388 12.5651 56.7279 12.3083 56.6046 11.7588L56.4285 11.1079C56.2759 10.5346 56.5576 10.0986 57.0683 9.94335C57.579 9.78808 58.9819 9.3999 60.4084 9.3999C63.4666 9.3999 65.5035 11.3468 65.5035 14.4044V19.0447C65.5035 21.6126 63.1849 23.5296 60.4553 23.5296C57.7258 23.5296 55.4071 21.5828 55.4071 19.0447C55.4071 16.2976 57.444 14.8941 60.4025 14.8941V14.9001ZM60.4553 20.9139C61.7291 20.9139 62.4922 19.9823 62.4922 19.0447V17.1277H60.379C58.9526 17.1277 58.4419 18.0115 58.4419 18.9969C58.4419 19.9823 59.1052 20.9139 60.4553 20.9139Z" fill="#0D3157"/>
<path d="M66.8008 11.0245C66.7245 10.481 67.0297 10.063 67.5639 10.063H68.8142C69.3484 10.063 69.7064 10.3735 69.7828 10.917L70.8276 18.4895C71.0566 20.0422 71.5907 20.9022 72.7882 20.9022H73.7333L74.9308 11.0484C75.0071 10.3974 75.4121 10.063 75.9521 10.063H77.1496C77.6838 10.063 78.0184 10.3735 77.9421 10.9707L75.7232 28.1104C75.6469 28.7076 75.2654 28.9942 74.7312 28.9942H73.5572C73.023 28.9942 72.6884 28.6837 72.7647 28.1104L73.3752 23.5179H72.6884C69.683 23.5179 68.28 21.571 67.8691 18.7463L66.8008 11.0185V11.0245Z" fill="#0D3157"/>
<path d="M43.4616 6.03169C43.4616 5.45838 43.8373 5.07617 44.4008 5.07617H49.719C53.2117 5.07617 55.4365 7.75162 55.4365 10.8391C55.4365 13.9267 53.2058 16.5245 49.719 16.5245H46.6842V22.592C46.6842 23.1653 46.3086 23.5475 45.745 23.5475H44.4008C43.8373 23.5475 43.4616 23.1653 43.4616 22.592V6.03169ZM49.6134 13.7356C51.1983 13.7356 52.1375 12.5591 52.1375 10.8391C52.1375 9.11921 51.1983 7.91287 49.6134 7.91287H46.6842V13.7296H49.6134V13.7356Z" fill="#0D3157"/>
<path d="M118.41 6.17504V5.98394C118.41 4.99856 117.623 4.19234 116.649 4.19234H114.283V1.7916C114.283 0.806219 113.497 0 112.522 0H108.038C107.069 0 106.277 0.800247 106.277 1.7916V4.19831H103.911C102.943 4.19831 102.15 4.99856 102.15 5.98991V10.5525C102.15 11.5379 102.937 12.3441 103.911 12.3441H106.277V14.7508C106.277 15.7362 107.063 16.5424 108.038 16.5424H112.522C113.491 16.5424 114.283 15.7422 114.283 14.7508V12.3441H116.649C117.618 12.3441 118.41 11.5439 118.41 10.5525V6.18698V6.17504Z" fill="#0D3157"/>
<path d="M126 13.1864V12.9953C126 12.0099 125.213 11.2037 124.239 11.2037H121.873V8.79697C121.873 7.81159 121.087 7.00537 120.112 7.00537H119.443V10.5408C119.443 12.1114 118.187 13.3894 116.643 13.3894H115.317V14.7391C115.317 16.2082 114.184 17.4564 112.745 17.5758L112.599 17.5877H109.752C109.769 18.5552 110.544 19.3435 111.501 19.3435H113.867V21.7502C113.867 22.7356 114.653 23.5418 115.628 23.5418H120.112C121.081 23.5418 121.873 22.7416 121.873 21.7502V19.3435H124.239C125.208 19.3435 126 18.5433 126 17.5519V13.1864Z" fill="#C5337A"/>
</g>
<defs>
<clipPath id="clip0_1_66">
<rect width="126" height="29" fill="white"/>
</clipPath>
</defs>
</svg>
